<mxfile host="app.diagrams.net" agent="Mozilla/5.0 (Windows NT 10.0; Win64; x64) AppleWebKit/537.36 (KHTML, like Gecko) Chrome/136.0.0.0 Safari/537.36" version="27.0.5">
  <diagram name="Page-1" id="e26acm0EAPhCMfymi0Dx">
    <mxGraphModel dx="2276" dy="785" grid="1" gridSize="10" guides="1" tooltips="1" connect="1" arrows="1" fold="1" page="1" pageScale="1" pageWidth="850" pageHeight="1100" math="0" shadow="0">
      <root>
        <mxCell id="0" />
        <mxCell id="1" parent="0" />
        <mxCell id="K9NvL40qTqrn5tXgK4wX-7" style="edgeStyle=orthogonalEdgeStyle;rounded=0;orthogonalLoop=1;jettySize=auto;html=1;" edge="1" parent="1" source="K9NvL40qTqrn5tXgK4wX-1" target="K9NvL40qTqrn5tXgK4wX-8">
          <mxGeometry relative="1" as="geometry">
            <mxPoint x="480" y="680" as="targetPoint" />
          </mxGeometry>
        </mxCell>
        <mxCell id="K9NvL40qTqrn5tXgK4wX-1" value="&lt;h1&gt;&lt;font face=&quot;Courier New&quot;&gt;&lt;span style=&quot;font-size: 36px;&quot;&gt;Digitális&lt;br&gt;&lt;/span&gt;&lt;/font&gt;&lt;font face=&quot;Courier New&quot;&gt;&lt;span style=&quot;font-size: 36px;&quot;&gt;eszközök&lt;br&gt;&lt;/span&gt;&lt;/font&gt;&lt;font face=&quot;Courier New&quot;&gt;&lt;span style=&quot;font-size: 36px;&quot;&gt;használata&lt;/span&gt;&lt;/font&gt;&lt;/h1&gt;" style="whiteSpace=wrap;html=1;aspect=fixed;fillColor=#dae8fc;strokeColor=#6c8ebf;gradientColor=#7ea6e0;" vertex="1" parent="1">
          <mxGeometry x="320" y="200" width="320" height="320" as="geometry" />
        </mxCell>
        <mxCell id="K9NvL40qTqrn5tXgK4wX-4" value="" style="endArrow=classic;startArrow=classic;html=1;rounded=0;entryX=0;entryY=0.5;entryDx=0;entryDy=0;exitX=1;exitY=0.5;exitDx=0;exitDy=0;" edge="1" parent="1" source="K9NvL40qTqrn5tXgK4wX-5" target="K9NvL40qTqrn5tXgK4wX-1">
          <mxGeometry width="50" height="50" relative="1" as="geometry">
            <mxPoint x="230" y="360" as="sourcePoint" />
            <mxPoint x="210" y="320" as="targetPoint" />
          </mxGeometry>
        </mxCell>
        <mxCell id="K9NvL40qTqrn5tXgK4wX-5" value="&lt;h1&gt;&lt;font style=&quot;font-size: 36px;&quot;&gt;Alap&lt;font face=&quot;Courier New&quot;&gt;vető&lt;br&gt;&lt;/font&gt;&lt;font face=&quot;Courier New&quot;&gt;számítástechnikai&lt;br&gt;&lt;/font&gt;&lt;font face=&quot;Courier New&quot;&gt;ismeretek&lt;/font&gt;&lt;/font&gt;&lt;/h1&gt;" style="whiteSpace=wrap;html=1;aspect=fixed;fillColor=#dae8fc;gradientColor=#7ea6e0;strokeColor=#6c8ebf;" vertex="1" parent="1">
          <mxGeometry x="-200" y="200" width="400" height="400" as="geometry" />
        </mxCell>
        <mxCell id="K9NvL40qTqrn5tXgK4wX-8" value="&lt;h1&gt;&lt;font style=&quot;font-size: 36px;&quot;&gt;Okostelefonok, alkalmazások&lt;/font&gt;&lt;/h1&gt;" style="whiteSpace=wrap;html=1;aspect=fixed;fillColor=#dae8fc;strokeColor=#6c8ebf;gradientColor=#7ea6e0;" vertex="1" parent="1">
          <mxGeometry x="310" y="650" width="340" height="340" as="geometry" />
        </mxCell>
        <mxCell id="K9NvL40qTqrn5tXgK4wX-9" value="&lt;h1&gt;Felhőalapú tárolás és biztonság&lt;/h1&gt;" style="whiteSpace=wrap;html=1;aspect=fixed;fillColor=#dae8fc;gradientColor=#7ea6e0;strokeColor=#6c8ebf;" vertex="1" parent="1">
          <mxGeometry x="-165" y="670" width="330" height="330" as="geometry" />
        </mxCell>
        <mxCell id="K9NvL40qTqrn5tXgK4wX-10" style="edgeStyle=orthogonalEdgeStyle;rounded=0;orthogonalLoop=1;jettySize=auto;html=1;entryX=0.5;entryY=0;entryDx=0;entryDy=0;" edge="1" parent="1" source="K9NvL40qTqrn5tXgK4wX-5" target="K9NvL40qTqrn5tXgK4wX-9">
          <mxGeometry relative="1" as="geometry">
            <mxPoint y="660" as="targetPoint" />
          </mxGeometry>
        </mxCell>
        <mxCell id="K9NvL40qTqrn5tXgK4wX-11" style="edgeStyle=orthogonalEdgeStyle;rounded=0;orthogonalLoop=1;jettySize=auto;html=1;" edge="1" parent="1" source="K9NvL40qTqrn5tXgK4wX-8">
          <mxGeometry relative="1" as="geometry">
            <mxPoint x="170" y="820" as="targetPoint" />
          </mxGeometry>
        </mxCell>
        <mxCell id="K9NvL40qTqrn5tXgK4wX-12" value="&lt;h1&gt;Digitális munka eszközök használata&lt;/h1&gt;" style="whiteSpace=wrap;html=1;aspect=fixed;fillColor=#dae8fc;gradientColor=#7ea6e0;strokeColor=#6c8ebf;" vertex="1" parent="1">
          <mxGeometry x="840" y="350" width="400" height="400" as="geometry" />
        </mxCell>
        <mxCell id="K9NvL40qTqrn5tXgK4wX-13" style="edgeStyle=orthogonalEdgeStyle;rounded=0;orthogonalLoop=1;jettySize=auto;html=1;entryX=0.01;entryY=0.715;entryDx=0;entryDy=0;entryPerimeter=0;" edge="1" parent="1" source="K9NvL40qTqrn5tXgK4wX-8" target="K9NvL40qTqrn5tXgK4wX-12">
          <mxGeometry relative="1" as="geometry" />
        </mxCell>
        <mxCell id="K9NvL40qTqrn5tXgK4wX-14" style="edgeStyle=orthogonalEdgeStyle;rounded=0;orthogonalLoop=1;jettySize=auto;html=1;entryX=-0.005;entryY=0.293;entryDx=0;entryDy=0;entryPerimeter=0;" edge="1" parent="1" source="K9NvL40qTqrn5tXgK4wX-1" target="K9NvL40qTqrn5tXgK4wX-12">
          <mxGeometry relative="1" as="geometry" />
        </mxCell>
      </root>
    </mxGraphModel>
  </diagram>
</mxfile>
